<svg width="30" height="27" viewBox="0 0 30 27" fill="none" xmlns="http://www.w3.org/2000/svg">
<path d="M22.5 21C23.3284 21 24 20.3284 24 19.5C24 18.6716 23.3284 18 22.5 18C21.6716 18 21 18.6716 21 19.5C21 20.3284 21.6716 21 22.5 21Z" fill="white"/>
<path fill-rule="evenodd" clip-rule="evenodd" d="M6 1.5C6 0.671573 6.67157 0 7.5 0C8.32843 0 9 0.671573 9 1.5V3H21V1.5C21 0.671573 21.6716 0 22.5 0C23.3284 0 24 0.671573 24 1.5V3H25.5C27.9853 3 30 5.01472 30 7.5V22.5C30 24.9853 27.9853 27 25.5 27H4.5C2.01472 27 0 24.9853 0 22.5V7.5C0 5.01472 2.01472 3 4.5 3H6V1.5ZM21 6V7.5C21 8.32843 21.6716 9 22.5 9C23.3284 9 24 8.32843 24 7.5V6H25.5C26.3284 6 27 6.67157 27 7.5V12H3V7.5C3 6.67157 3.67157 6 4.5 6H6V7.5C6 8.32843 6.67157 9 7.5 9C8.32843 9 9 8.32843 9 7.5V6H21ZM3 15H27V22.5C27 23.3284 26.3284 24 25.5 24H4.5C3.67157 24 3 23.3284 3 22.5V15Z" fill="white"/>
</svg>
