<svg width="37" height="36" viewBox="0 0 37 36" fill="none" xmlns="http://www.w3.org/2000/svg">
<path fill-rule="evenodd" clip-rule="evenodd" d="M3.33325 7.5C3.33325 5.01472 5.34797 3 7.83325 3H28.8333C31.3185 3 33.3333 5.01472 33.3333 7.5V23.2726C33.3333 25.3312 31.6644 27 29.6059 27C29.1306 27 28.783 27.4483 28.9014 27.9085L28.9932 28.2657C29.9562 32.0104 25.5873 34.8173 22.5817 32.385L16.34 27.334C16.073 27.1179 15.7399 27 15.3964 27H7.83325C5.34797 27 3.33325 24.9853 3.33325 22.5V7.5ZM7.83325 6C7.00482 6 6.33325 6.67157 6.33325 7.5V22.5C6.33325 23.3284 7.00483 24 7.83325 24H15.3964C16.4269 24 17.4262 24.3537 18.2273 25.0019L24.4689 30.0529C25.2278 30.6671 26.3309 29.9584 26.0878 29.0128L25.9959 28.6557C25.3894 26.2971 27.1706 24 29.6059 24C30.0076 24 30.3333 23.6743 30.3333 23.2726V7.5C30.3333 6.67157 29.6617 6 28.8333 6H7.83325Z" fill="white"/>
</svg>
