<svg width="33" height="30" viewBox="0 0 33 30" fill="none" xmlns="http://www.w3.org/2000/svg">
<path fill-rule="evenodd" clip-rule="evenodd" d="M5.67783 1.75132C6.09858 1.03785 6.86515 0.599976 7.69344 0.599976H25.4232C26.2514 0.599976 27.018 1.03785 27.4388 1.75132L32.3256 10.038C32.8291 10.8917 32.7401 11.9699 32.1036 12.7295L18.3519 29.1415C17.4166 30.2577 15.7 30.2577 14.7647 29.1415L1.01297 12.7295C0.376471 11.9699 0.287528 10.8917 0.790958 10.038L5.67783 1.75132ZM7.16351 4.90163L4.24574 9.84931H9.22539L7.16351 4.90163ZM9.69113 3.47998L11.5604 7.96543L14.155 3.47998H9.69113ZM18.953 3.47998L21.6221 8.12768L23.5635 3.47998H18.953ZM26.0337 5.03831L24.0241 9.84931H28.8709L26.0337 5.03831ZM19.2897 9.84931L16.5536 5.08512L13.7978 9.84931H19.2897ZM13.3624 12.7293H19.8564L16.5733 22.5699L13.3624 12.7293ZM10.333 12.7293H4.77016L13.8808 23.6024L10.333 12.7293ZM19.2842 23.5447L22.8924 12.7293H28.3464L19.2842 23.5447Z" fill="white"/>
</svg>
