<svg width="36" height="34" viewBox="0 0 36 34" fill="none" xmlns="http://www.w3.org/2000/svg">
<path d="M19.3494 2.25172C19.3494 1.42356 18.745 0.752197 17.9994 0.752197C17.2538 0.752197 16.6494 1.42356 16.6494 2.25172V4.84959C16.6494 5.67776 17.2538 6.34911 17.9994 6.34911C18.745 6.34911 19.3494 5.67776 19.3494 4.84959V2.25172Z" fill="white"/>
<path fill-rule="evenodd" clip-rule="evenodd" d="M12.7441 13.9286C12.7441 11.0272 15.0962 8.67512 17.9976 8.67512C20.899 8.67512 23.2511 11.0272 23.2511 13.9286C23.2511 16.83 20.899 19.1821 17.9976 19.1821C15.0962 19.1821 12.7441 16.83 12.7441 13.9286ZM17.9976 11.3751C16.5874 11.3751 15.4441 12.5184 15.4441 13.9286C15.4441 15.3389 16.5874 16.4821 17.9976 16.4821C19.4079 16.4821 20.5511 15.3389 20.5511 13.9286C20.5511 12.5184 19.4079 11.3751 17.9976 11.3751Z" fill="white"/>
<path fill-rule="evenodd" clip-rule="evenodd" d="M9.81491 24.486C11.3364 22.2624 13.9712 20.7355 17.9991 20.7355C22.027 20.7355 24.6619 22.2624 26.1833 24.486C27.6 26.5566 27.8026 28.8767 27.8068 30.0945C27.8134 32.0177 26.2536 33.2881 24.6587 33.2881H11.3395C9.74465 33.2881 8.18483 32.0177 8.19143 30.0945C8.19561 28.8767 8.39818 26.5566 9.81491 24.486ZM17.9991 23.4355C14.7321 23.4355 12.992 24.624 12.0432 26.0107C11.0725 27.4294 10.8948 29.1086 10.8914 30.1038C10.8908 30.2787 10.9532 30.3869 11.029 30.4592C11.1178 30.544 11.236 30.5881 11.3395 30.5881H24.6587C24.7622 30.5881 24.8804 30.544 24.9692 30.4592C25.0451 30.3869 25.1074 30.2787 25.1068 30.1038C25.1034 29.1086 24.9257 27.4294 23.955 26.0107C23.0062 24.624 21.2662 23.4355 17.9991 23.4355Z" fill="white"/>
<path fill-rule="evenodd" clip-rule="evenodd" d="M3.30989 16.1634C3.30989 13.7544 5.26281 11.8015 7.67186 11.8015C10.0809 11.8015 12.0338 13.7544 12.0338 16.1634C12.0338 18.5725 10.0809 20.5254 7.67186 20.5254C5.26281 20.5254 3.30989 18.5725 3.30989 16.1634ZM7.67186 14.5015C6.75398 14.5015 6.00989 15.2456 6.00989 16.1634C6.00989 17.0813 6.75398 17.8254 7.67186 17.8254C8.58973 17.8254 9.33382 17.0813 9.33382 16.1634C9.33382 15.2456 8.58973 14.5015 7.67186 14.5015Z" fill="white"/>
<path d="M8.05938 23.9896C8.53856 23.2893 9.11968 22.5579 9.81776 21.8659C9.39264 21.8194 8.94671 21.7953 8.47945 21.7953C5.03195 21.7953 2.74519 23.1062 1.42027 25.0425C0.193495 26.8355 0.0211711 28.8374 0.017597 29.8791C0.0116065 31.6252 1.42984 32.78 2.87957 32.78H6.99032C6.46195 32.3273 6.10555 31.6461 6.10842 30.8095C6.10917 30.5899 6.11514 30.3452 6.12958 30.08H2.87957C2.84862 30.08 2.80214 30.0649 2.76678 30.0311C2.75184 30.0169 2.74113 30.0014 2.73368 29.9841C2.72682 29.9683 2.71741 29.9389 2.71758 29.8884C2.72039 29.0693 2.86782 27.7083 3.64859 26.5672C4.32638 25.5766 5.52354 24.6891 7.71915 24.5231C7.82557 24.3438 7.93883 24.1658 8.05938 23.9896Z" fill="white"/>
<path d="M29.0084 32.7803H33.1112C34.561 32.7803 35.9792 31.6255 35.9732 29.8793C35.9696 28.8376 35.7973 26.8357 34.5705 25.0427C33.2456 23.1063 30.9588 21.7955 27.5113 21.7955C27.0468 21.7955 26.6034 21.8193 26.1805 21.8652C26.8789 22.5574 27.4602 23.289 27.9396 23.9896C28.0603 24.166 28.1737 24.3443 28.2803 24.5239C30.4704 24.6915 31.6653 25.578 32.3422 26.5674C33.123 27.7085 33.2704 29.0695 33.2732 29.8886C33.2734 29.9392 33.264 29.9685 33.2571 29.9843C33.2497 30.0016 33.239 30.0171 33.224 30.0313C33.1887 30.0651 33.1422 30.0803 33.1112 30.0803H29.8694C29.8838 30.3453 29.8898 30.5899 29.8905 30.8095C29.8934 31.6462 29.5369 32.3275 29.0084 32.7803Z" fill="white"/>
<path fill-rule="evenodd" clip-rule="evenodd" d="M28.3299 11.8499C25.9178 11.8499 23.9625 13.8053 23.9625 16.2174C23.9625 18.6294 25.9178 20.5848 28.3299 20.5848C30.742 20.5848 32.6974 18.6294 32.6974 16.2174C32.6974 13.8053 30.742 11.8499 28.3299 11.8499ZM26.6625 16.2174C26.6625 15.2964 27.409 14.5499 28.3299 14.5499C29.2508 14.5499 29.9974 15.2964 29.9974 16.2174C29.9974 17.1383 29.2508 17.8848 28.3299 17.8848C27.409 17.8848 26.6625 17.1383 26.6625 16.2174Z" fill="white"/>
<path d="M26.3773 4.07436C26.9045 4.60156 26.8572 5.50367 26.2716 6.08927L24.4346 7.92625C23.849 8.51185 22.9469 8.55918 22.4197 8.03198C21.8925 7.50477 21.9398 6.60266 22.5254 6.01706L24.3624 4.18008C24.948 3.59448 25.8501 3.54715 26.3773 4.07436Z" fill="white"/>
<path d="M11.6122 4.18008C11.0266 3.59448 10.1245 3.54715 9.59728 4.07436C9.07008 4.60156 9.11741 5.50367 9.70301 6.08927L11.54 7.92625C12.1256 8.51185 13.0277 8.55918 13.5549 8.03198C14.0821 7.50477 14.0348 6.60266 13.4492 6.01706L11.6122 4.18008Z" fill="white"/>
</svg>
