<svg width="24" height="30" viewBox="0 0 24 30" fill="none" xmlns="http://www.w3.org/2000/svg">
<path fill-rule="evenodd" clip-rule="evenodd" d="M3 27H21L21 8.74264L15.2574 3H3V27ZM3 0C1.34315 0 0 1.34315 0 3V27C0 28.6569 1.34315 30 3 30H21C22.6569 30 24 28.6569 24 27V8.74264C24 7.94699 23.6839 7.18393 23.1213 6.62132L17.3787 0.87868C16.8161 0.316071 16.053 0 15.2574 0H3Z" fill="white"/>
<path d="M6 22.5C6 21.6716 6.67157 21 7.5 21H16.5C17.3284 21 18 21.6716 18 22.5C18 23.3284 17.3284 24 16.5 24H7.5C6.67157 24 6 23.3284 6 22.5Z" fill="white"/>
<path d="M6 16.5C6 15.6716 6.67157 15 7.5 15H13.5C14.3284 15 15 15.6716 15 16.5C15 17.3284 14.3284 18 13.5 18H7.5C6.67157 18 6 17.3284 6 16.5Z" fill="white"/>
<path d="M6 10.5C6 9.67157 6.67157 9 7.5 9H10.5C11.3284 9 12 9.67157 12 10.5C12 11.3284 11.3284 12 10.5 12H7.5C6.67157 12 6 11.3284 6 10.5Z" fill="white"/>
</svg>
