<svg width="37" height="36" viewBox="0 0 37 36" fill="none" xmlns="http://www.w3.org/2000/svg">
<path fill-rule="evenodd" clip-rule="evenodd" d="M24.1639 4.22551C25.717 2.67243 28.235 2.67243 29.7881 4.2255L32.6309 7.06865C34.184 8.62173 34.184 11.1398 32.6309 12.6928L15.3692 29.9546C14.5277 30.7961 13.4672 31.3847 12.308 31.6537L5.8803 32.8882C4.45521 33.2189 3.2031 31.8894 3.61849 30.4867L5.28245 24.1978C5.58362 23.1807 6.13425 22.2551 6.88426 21.5051L24.1639 4.22551ZM27.5384 6.47519C27.2278 6.16457 26.7242 6.16457 26.4136 6.47519L24.3978 8.4909L26.249 10.4534L28.31 12.5144L30.3812 10.4432C30.6919 10.1326 30.6918 9.62894 30.3812 9.31833L27.5384 6.47519ZM26.0603 14.7641L23.9637 12.6675L22.147 10.7417L9.13394 23.7548C8.75894 24.1298 8.48362 24.5926 8.33304 25.1011L7.2894 29.2952L11.5889 28.5545C12.1685 28.42 12.6988 28.1257 13.1195 27.7049L26.0603 14.7641Z" fill="white"/>
</svg>
