<svg width="34" height="28" viewBox="0 0 34 28" fill="none" xmlns="http://www.w3.org/2000/svg">
<path d="M23.125 3.59484C21.271 2.64291 19.205 1.9999 16.9993 1.9999C13.0338 1.9999 9.51957 4.07841 6.87699 6.29386C4.20877 8.53079 2.23454 11.0706 1.32234 12.3394C0.604791 13.3375 0.604792 14.6623 1.32234 15.6604C2.11761 16.7665 3.72006 18.8387 5.88583 20.834L8.00911 18.7108C6.06382 16.9354 4.58901 15.0554 3.82367 13.9999C4.69014 12.8049 6.46597 10.5533 8.80436 8.59284C11.229 6.56014 14.0681 4.9999 16.9993 4.9999C18.3184 4.9999 19.6188 5.31585 20.8712 5.84864L23.125 3.59484Z" fill="white"/>
<path fill-rule="evenodd" clip-rule="evenodd" d="M30.0539 0.960638C30.6401 0.374489 31.5904 0.374489 32.1766 0.960638C32.7627 1.54679 32.7627 2.49714 32.1766 3.08329L28.1031 7.15679C30.2738 9.15488 31.8799 11.2316 32.6763 12.3394C33.3939 13.3375 33.3939 14.6623 32.6763 15.6604C31.7641 16.9292 29.7899 19.469 27.1217 21.7059C24.4791 23.9214 20.9649 25.9999 16.9993 25.9999C14.7888 25.9999 12.7185 25.354 10.8612 24.3986L8.16683 27.093C7.58068 27.6791 6.63035 27.6791 6.0442 27.093C5.45805 26.5068 5.45805 25.5565 6.0442 24.9703C6.0442 24.9703 27.0429 3.97168 30.0539 0.960638ZM25.9797 9.28008L22.8004 12.4594C22.9306 12.951 23 13.4674 23 13.9999C23 17.3136 20.3137 19.9999 17 19.9999C16.4674 19.9999 15.9511 19.9305 15.4595 19.8003L13.1143 22.1456C14.3707 22.6818 15.6756 22.9999 16.9993 22.9999C19.9306 22.9999 22.7697 21.4397 25.1943 19.407C27.5327 17.4465 29.3085 15.1949 30.175 13.9999C29.4084 12.9426 27.9299 11.0582 25.9797 9.28008Z" fill="white"/>
<path d="M18.5246 8.19532C18.0377 8.06781 17.5268 7.9999 17 7.9999C13.6863 7.9999 11 10.6862 11 13.9999C11 14.5267 11.0679 15.0377 11.1954 15.5245L18.5246 8.19532Z" fill="white"/>
</svg>
