<svg width="34" height="24" viewBox="0 0 34 24" fill="none" xmlns="http://www.w3.org/2000/svg">
<path fill-rule="evenodd" clip-rule="evenodd" d="M3.82465 12C4.69112 13.195 6.46694 15.4466 8.80533 17.4071C11.2299 19.4398 14.069 21 17.0003 21C19.9316 21 22.7707 19.4398 25.1953 17.4071C27.5337 15.4466 29.3095 13.195 30.176 12C29.3095 10.805 27.5337 8.55336 25.1953 6.59293C22.7707 4.56023 19.9316 3 17.0003 3C14.069 3 11.2299 4.56023 8.80533 6.59293C6.46694 8.55336 4.69112 10.805 3.82465 12ZM6.87796 4.29397C9.52055 2.07852 13.0347 0 17.0003 0C20.9659 0 24.4801 2.07852 27.1227 4.29397C29.7909 6.5309 31.7651 9.07071 32.6773 10.3395C33.3948 11.3376 33.3948 12.6624 32.6773 13.6605C31.7651 14.9293 29.7909 17.4691 27.1227 19.706C24.4801 21.9215 20.9659 24 17.0003 24C13.0347 24 9.52055 21.9215 6.87796 19.706C4.20975 17.4691 2.23552 14.9293 1.32332 13.6605C0.605769 12.6624 0.605768 11.3376 1.32332 10.3395C2.23552 9.07071 4.20975 6.5309 6.87796 4.29397Z" fill="white"/>
<path fill-rule="evenodd" clip-rule="evenodd" d="M17.0003 15C18.6572 15 20.0003 13.6569 20.0003 12C20.0003 10.3431 18.6572 9 17.0003 9C15.3435 9 14.0003 10.3431 14.0003 12C14.0003 13.6569 15.3435 15 17.0003 15ZM17.0003 18C20.314 18 23.0003 15.3137 23.0003 12C23.0003 8.68629 20.314 6 17.0003 6C13.6866 6 11.0003 8.68629 11.0003 12C11.0003 15.3137 13.6866 18 17.0003 18Z" fill="white"/>
</svg>
