<svg width="30" height="29" viewBox="0 0 30 29" fill="none" xmlns="http://www.w3.org/2000/svg">
<path fill-rule="evenodd" clip-rule="evenodd" d="M15.0213 0.500151C15.4539 0.506277 15.8627 0.698886 16.1429 1.02853L28.8929 16.0285C29.2716 16.474 29.3569 17.0989 29.1115 17.6296C28.8661 18.1603 28.3347 18.5 27.75 18.5H25.5V27.5C25.5 28.3284 24.8285 29 24 29H16.5V21.5H13.5V29H6.00003C5.1716 29 4.50003 28.3284 4.50003 27.5V18.5H1.50003C0.907661 18.5 0.370775 18.1514 0.129778 17.6103C-0.11122 17.0691 -0.0111856 16.4369 0.385087 15.9966L13.8851 0.996553C14.1745 0.674978 14.5887 0.494024 15.0213 0.500151ZM4.86807 15.5H7.50003V26H10.5V18.5H19.5V26H22.5V15.5H24.5064L14.9678 4.27812L4.86807 15.5Z" fill="white"/>
</svg>
