<svg width="30" height="24" viewBox="0 0 30 24" fill="none" xmlns="http://www.w3.org/2000/svg">
<path fill-rule="evenodd" clip-rule="evenodd" d="M4.5 0C2.01472 0 0 2.01472 0 4.5V19.5C0 21.9853 2.01472 24 4.5 24H25.5C27.9853 24 30 21.9853 30 19.5V4.5C30 2.01472 27.9853 0 25.5 0H4.5ZM4.23827 3.02276C4.32326 3.0078 4.41072 3 4.5 3H25.5C25.5893 3 25.6768 3.0078 25.7618 3.02276L15 10.1973L4.23827 3.02276ZM3 5.80279V19.5C3 20.3284 3.67157 21 4.5 21H25.5C26.3284 21 27 20.3284 27 19.5V5.80282L15.8321 13.2481C15.3282 13.584 14.6718 13.584 14.168 13.2481L3 5.80279Z" fill="white"/>
</svg>
