<svg width="30" height="30" viewBox="0 0 30 30" fill="none" xmlns="http://www.w3.org/2000/svg">
<path fill-rule="evenodd" clip-rule="evenodd" d="M28.7593 21.2008C30.0019 19.0485 29.2645 16.2964 27.1122 15.0537L27.019 14.9999L27.1121 14.9462C29.2644 13.7035 30.0018 10.9514 28.7592 8.79904L27.2592 6.20096C26.0166 4.04865 23.2644 3.31121 21.1121 4.55385L21.0188 4.6077V4.5C21.0188 2.01472 19.0041 4.41629e-07 16.5188 4.35057e-07L13.5188 0C11.0335 3.03143e-07 9.01883 2.01472 9.01882 4.5L9.01883 4.60753L8.92564 4.55373C6.77333 3.31109 4.02117 4.04853 2.77853 6.20084L1.27853 8.79892C0.0358881 10.9512 0.773325 13.7034 2.92564 14.946L3.01897 14.9999L2.92556 15.0538C0.773241 16.2965 0.0358015 19.0486 1.27844 21.201L2.77844 23.799C4.02108 25.9514 6.77324 26.6888 8.92556 25.4462L9.01882 25.3923V25.5C9.01882 27.9853 11.0335 30 13.5188 30H16.5188C19.0041 30 21.0188 27.9853 21.0188 25.5V25.3921L21.1122 25.446C23.2645 26.6887 26.0166 25.9512 27.2593 23.7989L28.7593 21.2008ZM22.5188 7.20577C20.5188 8.36048 18.0188 6.9171 18.0188 4.60769V4.5C18.0188 3.67157 17.3473 3 16.5188 3L13.5188 3C12.6904 3 12.0189 3.67152 12.0188 4.4999L12.0188 4.60753C12.0188 6.91686 9.51896 8.36023 7.51896 7.20568L7.42564 7.1518C6.7082 6.73759 5.79082 6.9834 5.3766 7.70084L3.8766 10.2989C3.46239 11.0164 3.7082 11.9337 4.42564 12.348L4.51884 12.4018C6.51896 13.5564 6.51903 16.4433 4.51896 17.598L4.42556 17.6519C3.70812 18.0661 3.46231 18.9835 3.87652 19.701L5.37652 22.299C5.79073 23.0165 6.70812 23.2623 7.42556 22.8481L7.51883 22.7942C9.51883 21.6395 12.0188 23.0829 12.0188 25.3923V25.5C12.0188 26.3284 12.6904 27 13.5188 27H16.5188C17.3473 27 18.0188 26.3284 18.0188 25.5V25.3921C18.0188 23.0827 20.519 21.6393 22.519 22.7941L22.6122 22.848C23.3296 23.2622 24.247 23.0164 24.6612 22.2989L26.1612 19.7008C26.5754 18.9834 26.3296 18.066 25.6122 17.6518L25.5189 17.5979C23.519 16.4432 23.5191 13.5565 25.519 12.4019L25.6121 12.3481C26.3295 11.9338 26.5753 11.0165 26.1611 10.299L24.6611 7.70096C24.2469 6.98352 23.3295 6.73771 22.6121 7.15193L22.5188 7.20577Z" fill="white"/>
<path fill-rule="evenodd" clip-rule="evenodd" d="M15.0186 17.9999C16.6754 17.9999 18.0186 16.6568 18.0186 14.9999C18.0186 13.3431 16.6754 11.9999 15.0186 11.9999C13.3617 11.9999 12.0186 13.3431 12.0186 14.9999C12.0186 16.6568 13.3617 17.9999 15.0186 17.9999ZM15.0186 20.9999C18.3323 20.9999 21.0186 18.3136 21.0186 14.9999C21.0186 11.6862 18.3323 8.99991 15.0186 8.99991C11.7048 8.99991 9.01855 11.6862 9.01855 14.9999C9.01855 18.3136 11.7048 20.9999 15.0186 20.9999Z" fill="white"/>
</svg>
