<svg width="36" height="36" viewBox="0 0 36 36" fill="none" xmlns="http://www.w3.org/2000/svg">
<path fill-rule="evenodd" clip-rule="evenodd" d="M8.63268 7.07748C7.75949 7.0439 7.04255 7.76083 7.07614 8.63402L7.41555 17.4587C7.43007 17.8363 7.58658 18.1945 7.85378 18.4617L17.12 27.7279C17.7058 28.3137 18.6555 28.3137 19.2413 27.7279L27.7266 19.2426C28.3124 18.6569 28.3124 17.7071 27.7266 17.1213L18.4604 7.85512C18.1932 7.58792 17.835 7.43141 17.4574 7.41689L8.63268 7.07748ZM4.07835 8.74932C3.9776 6.12976 6.12842 3.97894 8.74798 4.0797L17.5727 4.41911C18.7055 4.46268 19.7801 4.9322 20.5817 5.7338L29.8479 15C31.6053 16.7574 31.6053 19.6066 29.8479 21.364L21.3626 29.8492C19.6053 31.6066 16.756 31.6066 14.9987 29.8492L5.73246 20.583C4.93086 19.7814 4.46133 18.7068 4.41776 17.574L4.07835 8.74932Z" fill="white"/>
<path d="M15.3639 11.1213C16.5354 12.2929 16.5354 14.1924 15.3639 15.364C14.1923 16.5355 12.2928 16.5355 11.1212 15.364C9.94964 14.1924 9.94964 12.2929 11.1212 11.1213C12.2928 9.94975 14.1923 9.94975 15.3639 11.1213Z" fill="white"/>
</svg>
